<svg
  version="1.1"
  xmlns:svg="http://www.w3.org/2000/svg"
  xmlns="http://www.w3.org/2000/svg"
  xmlns:xlink="http://www.w3.org/1999/xlink"
  x="0px"
  y="0px"
  viewBox="0 0 252.3 252.3"
  xml:space="preserve"
>
  <g>
    <path
      fill="currentColor"
      d="M215.3,36.9C191.5,13.1,159.8,0,126.1,0C56.6,0,0,56.6,0,126.1c0,33.7,13.1,65.4,36.9,89.2c23.8,23.8,55.5,36.9,89.2,36.9
                  		c33.7,0,65.4-13.1,89.2-36.9c23.8-23.8,36.9-55.5,36.9-89.2C252.3,92.4,239.1,60.8,215.3,36.9z M126.1,247.9
                  		c-32.5,0-63.1-12.7-86.1-35.7c-23-23-35.7-53.6-35.7-86.1C4.4,93.6,17,63,40,40C63,17,93.6,4.4,126.1,4.4S189.2,17,212.2,40
                  		c23,23,35.7,53.6,35.7,86.1C247.9,193.3,193.3,247.9,126.1,247.9z"
    ></path>
    <path
      fill="currentColor"
      d="M56.4,126.1h69.8V56.4C87.6,56.4,56.4,87.6,56.4,126.1z M126.1,126.1v69.8c38.5,0,69.8-31.2,69.8-69.8L126.1,126.1
                  		L126.1,126.1z"
    ></path>
    <path
      fill="currentColor"
      d="M49.8,52.9c1-1.2,3.4-1.2,4.9,0.1c1.7,1.4,1.7,3.4,0.6,4.7l-8.9,10.6l-5.6-4.7L49.8,52.9z M65.7,65.4l-9.4,11.2l-5.9-4.9
                  		l9.5-11.3c1.1-1.3,3.5-1.6,5.1-0.3C66.7,61.6,66.9,63.9,65.7,65.4L65.7,65.4z"
    ></path>
    <path
      fill="currentColor"
      d="M126.1,9.4C61.7,9.4,9.4,61.7,9.4,126.1s52.3,116.7,116.7,116.7s116.7-52.3,116.7-116.7S190.6,9.4,126.1,9.4z M109.1,15.8
                  		h9.2l8.4,21.9l8.4-21.9h9.2v30.7h-6.2V25L130,46.5h-6.7L115.2,25v21.5h-6.2V15.8z M31.6,66.3l15-17.9c3.1-3.7,7.4-6.7,11.6-3.2
                  		c1.3,1.1,1.8,1.4,3.4,4.2c0.4,1,0.6,2.8,0,4.6c3.6-2.2,7.4-1.5,9.9,0.9c3.8,3.7,3.2,8-0.4,12.3L55.1,86.1L31.6,66.3z M126.7,200.7
                  		c-41.2,0-74.6-33.4-74.6-74.6c0-41.2,33.4-74.6,74.6-74.6s74.6,33.4,74.6,74.6C201.2,167.3,167.9,200.7,126.7,200.7z M195.6,86.7
                  		l-5.6-6.9l11.1-16.3l-0.1-0.1l-18.2,7.5l-5.6-6.9l19.3-24.8l4.8,5.9l-12.1,15.8l18.4-7.9l5.1,6.3h0l-11.6,16.4l18-8.5l4.8,5.9
                  		L195.6,86.7z"
    ></path>
  </g>
</svg>
