<svg
  version="1.1"
  xmlns:svg="http://www.w3.org/2000/svg"
  xmlns="http://www.w3.org/2000/svg"
  xmlns:xlink="http://www.w3.org/1999/xlink"
  x="0px"
  y="0px"
  viewBox="0 0 252.3 252.3"
  style="enable-background: new 0 0 252.3 252.3"
  xml:space="preserve"
>
  <path
    class="fill-current"
    clip-rule="evenodd"
    fill-rule="evenodd"
    d="M126.1,0C56.5,0,0,56.5,0,126.1c0,69.7,56.5,126.1,126.1,126.1c69.7,0,126.1-56.5,126.1-126.1
                  	C252.3,56.5,195.8,0,126.1,0z M22.9,66.8c21-36.5,59.8-59.1,101.9-59.7l-16.3,108.1v0l-86.2,69.7C1.5,148.2,1.8,103.3,22.9,66.8z
                  	 M126.6,245.7c-42.2,0.2-81.3-21.9-102.8-58.2l102.4-42.4L229,186.9C207.6,223.3,168.7,245.6,126.6,245.7z M143.4,116.7L143.4,116.7
                  	L143.4,116.7L143.4,116.7L127.8,7.2c41.9,0.6,80.4,23.2,101.4,59.5c21.1,36.3,21.6,80.8,1.3,117.5L143.4,116.7z"
  ></path>
</svg>
