<?xml version="1.0" encoding="iso-8859-1"?>
<!-- Uploaded to: SVG Repo, www.svgrepo.com, Generator: SVG Repo Mixer Tools -->
<svg fill="currentColor" height="800px" width="800px" version="1.1" id="Layer_1" xmlns="http://www.w3.org/2000/svg" xmlns:xlink="http://www.w3.org/1999/xlink" 
	 viewBox="0 0 512 512" xml:space="preserve">
<g>
	<g>
		<g>
			<path d="M511.074,250.323c-81.746-243.856-428.361-243.98-510.148,0c-1.234,3.684-1.234,7.669,0,11.353
				c81.746,243.856,428.362,243.98,510.148,0C512.308,257.994,512.308,254.007,511.074,250.323z M36.778,256
				c23.559-64.753,73.805-114.34,135.81-138.035C125.926,146.268,94.681,197.553,94.681,256s31.245,109.732,77.909,138.035
				C110.584,370.341,60.339,320.753,36.778,256z M130.402,256c0-69.255,56.343-125.597,125.597-125.597S381.597,186.746,381.597,256
				S325.255,381.598,256,381.598S130.402,325.255,130.402,256z M339.411,394.034c46.662-28.303,77.909-79.587,77.909-138.035
				c0-58.448-31.245-109.732-77.909-138.035c62.006,23.694,112.251,73.282,135.811,138.035
				C451.661,320.753,401.415,370.341,339.411,394.034z"/>
			<circle cx="256" cy="256" r="15.979"/>
			<circle cx="199.882" cy="256" r="15.979"/>
			<circle cx="312.118" cy="256" r="15.979"/>
		</g>
	</g>
</g>
</svg>